<svg xmlns="http://www.w3.org/2000/svg" xmlns:xlink="http://www.w3.org/1999/xlink" width="156.264" height="53.026" viewBox="0 0 156.264 53.026">
  <defs>
    <filter id="Path_1" x="0" y="1.239" width="47.793" height="51.787" filterUnits="userSpaceOnUse">
      <feOffset dx="3" dy="-1" input="SourceAlpha"/>
      <feGaussianBlur stdDeviation="2.5" result="blur"/>
      <feFlood flood-color="#1a1818" flood-opacity="0.729"/>
      <feComposite operator="in" in2="blur"/>
      <feComposite in="SourceGraphic"/>
    </filter>
    <filter id="Path_2" x="108.471" y="0" width="47.793" height="51.787" filterUnits="userSpaceOnUse">
      <feOffset dx="3" dy="-1" input="SourceAlpha"/>
      <feGaussianBlur stdDeviation="2.5" result="blur-2"/>
      <feFlood flood-color="#1a1818" flood-opacity="0.729"/>
      <feComposite operator="in" in2="blur-2"/>
      <feComposite in="SourceGraphic"/>
    </filter>
  </defs>
  <g id="Component_2_1" data-name="Component 2 – 1" transform="translate(4.5 8.5)">
    <g transform="matrix(1, 0, 0, 1, -4.5, -8.5)" filter="url(#Path_1)">
      <path id="Path_1-2" data-name="Path 1" d="M93.661,477,79.514,487.506H97.776L79.514,500.98l18.776-.187L79,513.787l32.793-15.076H88.517l19.933-13.4-20.448.5Z" transform="translate(-74.5 -467.26)" fill="#58b270"/>
    </g>
    <text id="T_C_B_" data-name="T C B " transform="translate(40.548 29.368)" fill="#fff" font-size="28" font-family="TiltPrism-Regular, Tilt Prism"><tspan x="0" y="0">T C B </tspan></text>
    <g transform="matrix(1, 0, 0, 1, -4.5, -8.5)" filter="url(#Path_2)">
      <path id="Path_2-2" data-name="Path 2" d="M202.132,475.761l-14.146,10.506h18.261l-18.261,13.475,18.776-.187-19.29,12.994,32.793-15.076H196.987l19.933-13.4-20.448.5Z" transform="translate(-74.5 -467.26)" fill="#58b270"/>
    </g>
  </g>
</svg>
